HIERARCHY
ROOT Hips
{
	OFFSET	0.00	0.00	0.00
	CHANNELS 6 Xposition Yposition Zposition Zrotation Xrotation Yrotation
	JOINT LeftUpLeg
	{
		OFFSET	 0.126116	-0.014019	-0.065224
		CHANNELS 3 Zrotation Xrotation Yrotation
		JOINT LeftLeg
		{
			OFFSET	 0.000000	 0.000000	 0.569914
			CHANNELS 3 Zrotation Xrotation Yrotation
			JOINT LeftFoot
			{
				OFFSET	 0.000000	 0.000000	 0.544423
				CHANNELS 3 Zrotation Xrotation Yrotation
				JOINT LeftToeBase
				{
					OFFSET	 0.000000	 0.000000	 0.207117
					CHANNELS 3 Zrotation Xrotation Yrotation
					End Site
					{
						OFFSET	 0.000000	 0.000000	 0.207117
					}
				}
			}
		}
	}
	JOINT RightUpLeg
	{
		OFFSET	-0.124023	-0.008373	-0.065224
		CHANNELS 3 Zrotation Xrotation Yrotation
		JOINT RightLeg
		{
			OFFSET	 0.000000	 0.000000	 0.570047
			CHANNELS 3 Zrotation Xrotation Yrotation
			JOINT RightFoot
			{
				OFFSET	 0.000000	 0.000000	 0.544354
				CHANNELS 3 Zrotation Xrotation Yrotation
				JOINT RightToeBase
				{
					OFFSET	 0.000000	 0.000000	 0.207540
					CHANNELS 3 Zrotation Xrotation Yrotation
					End Site
					{
						OFFSET	 0.000000	 0.000000	 0.207540
					}
				}
			}
		}
	}
	JOINT Spine
	{
		OFFSET	 0.000184	-0.007763	 0.117403
		CHANNELS 3 Zrotation Xrotation Yrotation
		JOINT Spine1
		{
			OFFSET	 0.000000	 0.000000	 0.137269
			CHANNELS 3 Zrotation Xrotation Yrotation
			JOINT Spine2
			{
				OFFSET	 0.000000	 0.000000	 0.156879
				CHANNELS 3 Zrotation Xrotation Yrotation
				JOINT LeftShoulder
				{
					OFFSET	 0.080501	-0.002496	 0.160144
					CHANNELS 3 Zrotation Xrotation Yrotation
					JOINT LeftArm
					{
						OFFSET	 0.000000	 0.000000	 0.164363
						CHANNELS 3 Zrotation Xrotation Yrotation
						JOINT LeftForeArm
						{
							OFFSET	 0.000000	 0.000000	 0.364576
							CHANNELS 3 Zrotation Xrotation Yrotation
							JOINT LeftHand
							{
								OFFSET	 0.000000	 0.000000	 0.360812
								CHANNELS 3 Zrotation Xrotation Yrotation
								JOINT LeftHandIndex1
								{
									OFFSET	 0.000000	 0.000000	 0.086006
									CHANNELS 3 Zrotation Xrotation Yrotation
									JOINT LeftHandIndex2
									{
										OFFSET	 0.000000	 0.000000	 0.047236
										CHANNELS 3 Zrotation Xrotation Yrotation
										JOINT LeftHandIndex3
										{
											OFFSET	-0.004284	-0.000551	 0.038166
											CHANNELS 3 Zrotation Xrotation Yrotation
											End Site
											{
												OFFSET	-0.004284	-0.000551	 0.038166
											}
										}
									}
								}
							}
						}
					}
				}
				JOINT Neck
				{
					OFFSET	 0.000000	 0.000000	 0.176489
					CHANNELS 3 Zrotation Xrotation Yrotation
					JOINT Head
					{
						OFFSET	 0.000000	-0.001747	 0.077940
						CHANNELS 3 Zrotation Xrotation Yrotation
						End Site
						{
							OFFSET	 0.000000	-0.001747	 0.077940
						}
					}
				}
				JOINT RightShoulder
				{
					OFFSET	-0.080363	 0.000306	 0.159706
					CHANNELS 3 Zrotation Xrotation Yrotation
					JOINT RightArm
					{
						OFFSET	 0.000000	 0.000000	 0.164196
						CHANNELS 3 Zrotation Xrotation Yrotation
						JOINT RightForeArm
						{
							OFFSET	 0.000000	 0.000000	 0.365611
							CHANNELS 3 Zrotation Xrotation Yrotation
							JOINT RightHand
							{
								OFFSET	 0.000000	 0.000000	 0.360648
								CHANNELS 3 Zrotation Xrotation Yrotation
								JOINT RightHandIndex1
								{
									OFFSET	 0.000000	 0.000000	 0.069977
									CHANNELS 3 Zrotation Xrotation Yrotation
									JOINT RightHandIndex2
									{
										OFFSET	 0.000000	 0.000000	 0.052305
										CHANNELS 3 Zrotation Xrotation Yrotation
										JOINT RightHandIndex3
										{
											OFFSET	 0.009002	-0.000782	 0.042196
											CHANNELS 3 Zrotation Xrotation Yrotation
											End Site
											{
												OFFSET	 0.009002	-0.000782	 0.042196
											}
										}
									}
								}
							}
						}
					}
				}
			}
		}
	}
}
MOTION
Frames:    7
Frame Time: 0.03333334
-0.000668	 0.049237	 1.277429	-0.029060	 3.364183	 0.526918	 7.427542	-6.890953	 177.922300	 2.154648	-12.438410	 0.554163	 0.072923	 69.795110	-0.151065	-2.385833	 28.452750	 0.000004	-0.064036	-6.350788	-178.143000	-0.779845	-10.878540	 0.825613	 4.766336	 68.859950	 1.581296	 2.384659	 28.388700	-0.000001	-15.017850	 6.987372	 1.492611	-3.169718	-4.351732	-0.185394	 9.627386	 7.961052	-0.904872	-90.975190	 68.472270	-177.404400	-7.048430	 5.211408	-27.050230	 21.261000	 0.137525	-3.509479	-13.924500	-36.258250	-8.596156	-2.027600	 6.559038	 9.033609	-5.188889	 0.308190	 3.541030	-5.234859	 0.342567	 0.430617	 4.700323	 21.362450	-7.800179	 5.089817	-16.451600	 2.313493	 88.724980	 66.699170	 176.820500	 7.172261	 9.627105	 6.741413	-21.692710	-8.639604	 34.795360	 11.212310	-35.451150	 9.650111	 1.803333	 3.979147	-15.098590	 4.898592	 3.004813	-9.310344	 5.224449	 0.395017	 2.014677
-0.001783	 0.060298	 1.277484	 0.103429	 5.078044	 0.689518	 7.531294	-9.980760	 177.950900	 2.231304	-13.630180	 0.609720	 1.021170	 69.467480	-1.237423	-2.385833	 28.452760	 0.000004	-0.640840	-9.156215	-178.425000	-0.920960	-11.584590	 0.849989	 3.954587	 68.250080	 2.638138	 2.384659	 28.388700	-0.000001	-22.108500	 7.854495	 1.574691	-3.083782	-4.938496	-0.036336	 9.210971	 9.881273	-1.243932	-90.826200	 66.873050	-177.218100	-4.361843	 8.300270	-31.908460	 16.019980	 0.762495	-6.147790	-19.805480	-44.366100	-15.659460	-2.027600	 6.559038	 9.033609	-5.188889	 0.308190	 3.541030	-5.234859	 0.342567	 0.430617	 4.619443	 25.139170	-8.756686	 5.526072	-19.730910	 2.509798	 88.413820	 63.857110	 176.439000	 3.978062	 12.474490	 10.046830	-18.363050	-5.885984	 37.869300	 14.702540	-42.618710	 14.198030	 1.803333	 3.979147	-15.098590	 4.898592	 3.004813	-9.310344	 5.224449	 0.395017	 2.014677
-0.002729	 0.074741	 1.277851	 0.349718	 7.450121	 0.805287	 7.324994	-13.943320	 178.126900	 2.105782	-14.715300	 0.641096	 2.410619	 68.735890	-2.771955	-2.385832	 28.452790	-0.000001	-1.387675	-12.795950	-178.739700	-1.384984	-12.042840	 0.785845	 3.124133	 67.288940	 4.080787	 2.384659	 28.388700	-0.000001	-28.287340	 8.674115	 1.538812	-2.778574	-4.628765	 0.294086	 8.344158	 11.020950	-1.506059	-91.126400	 65.233640	-178.254300	-1.767435	 10.571640	-36.032070	 9.921227	 1.738187	-8.702803	-29.138970	-49.434570	-25.449330	-2.027600	 6.559038	 9.033609	-5.188889	 0.308190	 3.541030	-5.234859	 0.342567	 0.430617	 4.028084	 26.735430	-8.797944	 5.431230	-21.539140	 2.406256	 88.646520	 61.471410	 177.310300	-0.114155	 14.493860	 12.482620	-14.709070	-2.648167	 41.897770	 19.770640	-47.522420	 20.921990	 1.803333	 3.979147	-15.098590	 4.898592	 3.004813	-9.310344	 5.224449	 0.395017	 2.014677
-0.003764	 0.093835	 1.276805	 0.739246	 10.835880	 0.776011	 6.962847	-19.645020	 178.558300	 2.048984	-16.754720	 0.711155	 4.357052	 68.053500	-4.991020	-2.385832	 28.452790	-0.000001	-2.134981	-18.436790	-179.053500	-1.674951	-14.022790	 0.842100	 1.978102	 66.909260	 5.753205	 2.384659	 28.388700	-0.000001	-33.759910	 9.495144	 1.440490	-2.249042	-3.940975	 0.561901	 7.032580	 11.473930	-1.291911	-92.247060	 64.974670	 178.750300	 0.567888	 13.797390	-38.648360	 5.189592	 3.160402	-11.350480	-38.290010	-51.096220	-35.203540	-2.027600	 6.559038	 9.033609	-5.188889	 0.308190	 3.541030	-5.234859	 0.342567	 0.430617	 3.303205	 25.919400	-8.914492	 4.795039	-21.994120	 2.155005	 89.719260	 60.484650	 179.856000	-5.122452	 18.181890	 14.737220	-11.105050	 1.391088	 45.708270	 26.051900	-50.204870	 28.552570	 1.803333	 3.979147	-15.098590	 4.898592	 3.004813	-9.310344	 5.224449	 0.395017	 2.014677
-0.006382	 0.110843	 1.275733	 1.708361	 15.151210	 0.854523	 5.760307	-26.059100	 178.590800	 2.629532	-18.856380	 0.985313	 5.545115	 67.667620	-7.060712	-2.385833	 28.452760	 0.000004	-3.428365	-24.515040	-179.730100	-1.441762	-16.116430	 1.029660	-0.025364	 66.809960	 7.876844	 2.384659	 28.388700	-0.000001	-37.060320	 9.710087	 1.208316	-2.009777	-2.493505	 0.572084	 5.558184	 10.435530	-1.024303	-93.265200	 65.257670	 175.995900	 2.031808	 15.212890	-40.067010	 2.377521	 4.553938	-13.346040	-42.036340	-49.861090	-39.523130	-2.027600	 6.559038	 9.033609	-5.188889	 0.308190	 3.541030	-5.234859	 0.342567	 0.430617	 2.799775	 24.636010	-8.664427	 3.885861	-22.116790	 1.771931	 90.833560	 60.467720	-177.593400	-9.511663	 21.379170	 17.534870	-8.326307	 5.073113	 49.302300	 30.189460	-49.676560	 33.145400	 1.803333	 3.979147	-15.098590	 4.898592	 3.004813	-9.310344	 5.224449	 0.395017	 2.014677
-0.011255	 0.132310	 1.274415	 3.605167	 20.809970	 0.705971	 3.377147	-33.807300	 178.238400	 3.641676	-20.076070	 1.395117	 6.024204	 65.828690	-8.795012	-2.385833	 28.452760	 0.000004	-5.721826	-32.105350	 179.086200	-1.771480	-18.236150	 1.057191	-1.832496	 65.728400	 10.531700	 2.384659	 28.388700	-0.000001	-38.981710	 9.565499	 0.769103	-2.009691	 0.014274	 0.507277	 3.561892	 8.313855	-1.135902	-94.181730	 65.923770	 173.316400	 3.099551	 15.612730	-41.952910	-0.457306	 6.261349	-15.318920	-42.623600	-46.341370	-40.314060	-2.027600	 6.559038	 9.033609	-5.188889	 0.308190	 3.541030	-5.234859	 0.342567	 0.430617	 2.301229	 23.854920	-7.202031	 2.392898	-22.853530	 0.828397	 92.014690	 61.360350	-174.735000	-13.573680	 24.292520	 22.330640	-6.276747	 8.852511	 52.684210	 31.567800	-46.165750	 34.442700	 1.803333	 3.979147	-15.098590	 4.898592	 3.004813	-9.310344	 5.224449	 0.395017	 2.014677
-0.016345	 0.154458	 1.268543	 4.347826	 23.170840	 0.511584	 2.146922	-39.103710	 177.878500	 3.831925	-22.538080	 1.630979	 6.815819	 65.393100	-10.233350	-2.385833	 28.452750	 0.000004	-6.745834	-37.884460	 178.231300	-1.852659	-21.879670	 1.228563	-3.271455	 66.101360	 12.523710	 2.384659	 28.388700	-0.000001	-38.021090	 10.322540	 0.449265	-1.414698	 4.071847	 0.497721	 1.951521	 6.984641	-1.255310	-94.570470	 68.045960	 171.217500	 2.869284	 15.842110	-45.003880	-2.439698	 7.845635	-16.836620	-40.553340	-41.908420	-38.006070	-2.027600	 6.559038	 9.033609	-5.188889	 0.308190	 3.541030	-5.234859	 0.342567	 0.430617	 1.598609	 22.790380	-6.114336	 0.991965	-23.487810	-0.015315	 92.746020	 62.450970	-172.727000	-14.287000	 25.793990	 27.148940	-4.919565	 12.078660	 55.270080	 32.097060	-41.267590	 33.376610	 1.803333	 3.979147	-15.098590	 4.898592	 3.004813	-9.310344	 5.224449	 0.395017	 2.014677
